<svg xmlns="http://www.w3.org/2000/svg"  viewBox="0 0 64 64" width="256px" height="256px"><path fill="#85cbf8" d="M61,7v54L47.27,49.89c-0.71-0.58-1.6-0.89-2.52-0.89H5c-1.1,0-2-0.9-2-2V7c0-1.1,0.9-2,2-2h54 C60.1,5,61,5.9,61,7z"/><path fill="#7bbeeb" d="M61,46v15L47.27,49.89c-0.71-0.58-1.6-0.89-2.52-0.89H5c-1.1,0-2-0.9-2-2v-1c0-2.209,1.791-4,4-4h50 C59.209,42,61,43.791,61,46z"/><path fill="#faefde" d="M32 11A5 5 0 1 0 32 21A5 5 0 1 0 32 11Z"/><path fill="#fff7f0" d="M20 19A3 3 0 1 0 20 25 3 3 0 1 0 20 19zM44 19A3 3 0 1 0 44 25 3 3 0 1 0 44 19z"/><path fill="#faefde" d="M36.302,25.956L36.302,25.956c-2.833-0.63-5.77-0.63-8.603,0l0,0C24.953,26.566,23,29.001,23,31.813 V35h18v-3.187C41,29.001,39.047,26.566,36.302,25.956z"/><path fill="#fff7f0" d="M41 35h10v-2.014c0-1.875-1.302-3.498-3.132-3.905l-.397-.088c-2.286-.508-4.656-.508-6.942 0L41 35zM23.471 28.994c-2.286-.508-4.656-.508-6.942 0l-.397.088C14.302 29.488 13 31.112 13 32.986V35h10L23.471 28.994z"/><path fill="#8d6c9f" d="M59,4H5C3.346,4,2,5.346,2,7v40c0,1.654,1.346,3,3,3h39.752c0.685,0,1.354,0.237,1.887,0.668 l13.732,11.109C60.553,61.924,60.775,62,61,62c0.146,0,0.294-0.032,0.431-0.098C61.778,61.736,62,61.386,62,61V7 C62,5.346,60.654,4,59,4z M60,58.904l-12.104-9.791C47.01,48.396,45.893,48,44.752,48H5c-0.552,0-1-0.448-1-1V7 c0-0.552,0.448-1,1-1h54c0.552,0,1,0.448,1,1V58.904z"/><path fill="#8d6c9f" d="M22 40c-.553 0-1 .447-1 1v2c0 .553.447 1 1 1s1-.447 1-1v-2C23 40.447 22.553 40 22 40zM17 40c-.553 0-1 .447-1 1v2c0 .553.447 1 1 1s1-.447 1-1v-2C18 40.447 17.553 40 17 40zM12 40c-.553 0-1 .447-1 1v2c0 .553.447 1 1 1s1-.447 1-1v-2C13 40.447 12.553 40 12 40zM7 40c-.553 0-1 .447-1 1v2c0 .553.447 1 1 1s1-.447 1-1v-2C8 40.447 7.553 40 7 40zM37 40c-.553 0-1 .447-1 1v2c0 .553.447 1 1 1s1-.447 1-1v-2C38 40.447 37.553 40 37 40zM32 40c-.553 0-1 .447-1 1v2c0 .553.447 1 1 1s1-.447 1-1v-2C33 40.447 32.553 40 32 40zM27 40c-.553 0-1 .447-1 1v2c0 .553.447 1 1 1s1-.447 1-1v-2C28 40.447 27.553 40 27 40zM52 40c-.553 0-1 .447-1 1v2c0 .553.447 1 1 1s1-.447 1-1v-2C53 40.447 52.553 40 52 40zM47 40c-.553 0-1 .447-1 1v2c0 .553.447 1 1 1s1-.447 1-1v-2C48 40.447 47.553 40 47 40zM57 40c-.553 0-1 .447-1 1v2c0 .553.447 1 1 1s1-.447 1-1v-2C58 40.447 57.553 40 57 40zM42 40c-.553 0-1 .447-1 1v2c0 .553.447 1 1 1s1-.447 1-1v-2C43 40.447 42.553 40 42 40zM32 22c3.309 0 6-2.691 6-6s-2.691-6-6-6-6 2.691-6 6S28.691 22 32 22zM32 12c2.206 0 4 1.794 4 4s-1.794 4-4 4-4-1.794-4-4S29.794 12 32 12zM20 26c2.206 0 4-1.794 4-4s-1.794-4-4-4-4 1.794-4 4S17.794 26 20 26zM20 20c1.103 0 2 .897 2 2s-.897 2-2 2-2-.897-2-2S18.897 20 20 20zM44 26c2.206 0 4-1.794 4-4s-1.794-4-4-4-4 1.794-4 4S41.794 26 44 26zM44 20c1.103 0 2 .897 2 2s-.897 2-2 2-2-.897-2-2S42.897 20 44 20zM52 35v-2.014c0-2.362-1.61-4.369-3.914-4.88l-.398-.09c-2.248-.499-4.612-.513-6.876-.082-.971-1.458-2.466-2.549-4.293-2.955-2.955-.656-6.082-.656-9.037 0-1.827.406-3.322 1.497-4.293 2.955-2.262-.431-4.626-.417-6.877.083l-.396.088C13.61 28.617 12 30.624 12 32.986V35c0 .553.447 1 1 1h10 18 10C51.553 36 52 35.553 52 35zM14 32.986c0-1.417.966-2.621 2.35-2.929l.396-.088c1.817-.404 3.719-.441 5.562-.156C22.12 30.451 22 31.117 22 31.813V34h-8V32.986zM24 31.813c0-2.361 1.61-4.369 3.915-4.881 2.672-.596 5.498-.596 8.17 0C38.39 27.444 40 29.452 40 31.813V34H24V31.813zM50 34h-8v-2.187c0-.696-.12-1.362-.308-2 1.843-.286 3.745-.248 5.561.155l.398.09C49.034 30.365 50 31.569 50 32.986V34z"/></svg>