<?xml version="1.0" encoding="iso-8859-1"?>
<!-- Generator: Adobe Illustrator 26.1.0, SVG Export Plug-In . SVG Version: 6.00 Build 0)  -->
<svg version="1.1" baseProfile="basic" xmlns="http://www.w3.org/2000/svg" xmlns:xlink="http://www.w3.org/1999/xlink" x="0px"
	 y="0px" viewBox="0 0 100 100" xml:space="preserve">
<g id="&#x421;&#x43B;&#x43E;&#x439;_1">
</g>
<g id="&#x421;&#x43B;&#x43E;&#x439;_2">
	<g style="opacity:0.35;">
		<path d="M16.534,96.005c-1.736,0-3.368-0.676-4.596-1.904c-1.228-1.228-1.904-2.86-1.904-4.596
			c0-8.399,5.299-15.929,13.196-18.768l10.442-4.113c-1.799-2.709-2.942-5.958-3.668-9.011c-1.639-0.618-1.669-2.528-2.873-3.907
			c-3.807-4.358-6.706-11.579-2.71-16.249c0.39-0.456,0.827-0.869,1.302-1.237c-1.416-7.572-0.619-14.062,2.383-19.337
			c4.146-7.286,11.211-9.842,14.056-10.603c1.119-0.299,5.135-1.275,9.845-1.275c7.938,0,12.125,2.782,14.332,5.704
			c4.739,1.818,8.327,4.93,10.441,9.082c2.909,5.712,2.483,12.156,1.646,16.479c0.451,0.355,0.867,0.752,1.239,1.187
			c3.997,4.672,2.539,12.782-1.268,17.14c-1.139,1.303-2.518,2.287-4.052,2.912c-0.607,2.866-1.739,6.223-3.843,9.156l10.385,4.09
			c7.869,2.827,13.148,10.35,13.148,18.749c0,3.584-2.916,6.5-6.5,6.5L16.534,96.005z"/>
	</g>
	<g>
		<path style="fill:#F2F2F2;" d="M14.534,94.005c-1.736,0-3.368-0.676-4.596-1.904c-1.228-1.228-1.904-2.86-1.904-4.596
			c0-8.399,5.299-15.929,13.196-18.768l10.442-4.113c-1.799-2.709-2.942-5.958-3.668-9.011c-1.639-0.618-3.112-1.638-4.316-3.017
			c-3.807-4.358-5.264-12.469-1.268-17.139c0.39-0.456,0.827-0.869,1.302-1.237c-1.416-7.572-0.619-14.062,2.383-19.337
			c4.146-7.286,11.211-9.842,14.056-10.603c1.119-0.299,5.135-1.275,9.845-1.275c7.938,0,12.125,2.782,14.332,5.704
			c4.739,1.818,8.327,4.93,10.441,9.082c2.909,5.712,2.483,12.156,1.646,16.479c0.451,0.355,0.867,0.752,1.239,1.187
			c3.997,4.672,2.539,12.782-1.268,17.14c-1.139,1.303-2.518,2.287-4.052,2.912c-0.607,2.866-1.739,6.223-3.843,9.156l10.385,4.09
			c7.869,2.827,13.148,10.35,13.148,18.749c0,3.584-2.916,6.5-6.5,6.5L14.534,94.005z"/>
	</g>
	<g>
		<path style="fill:#FFC7A3;" d="M76.579,74.833l-16.573-5.907l0.505-6.725c3.73-3.02,4.386-7.224,6.141-12.574
			c1.469,1.375,3.98,0.863,5.875-1.306c2.061-2.359,2.609-5.779,1.225-7.638c-1.106-1.485-3.112-1.521-4.924-0.273
			c0.504-3.247,0.206-6.343,0.206-8.958c0-12.112-8.216-19.43-19-19.43s-19,7.318-19,19.43c0,2.662-0.21,5.823,0.421,9.134
			c-0.421-1.573-2.99-1.456-4.146,0.096c-1.385,1.859-0.836,5.278,1.225,7.638c2.061,2.359,3.834,2.765,5.218,0.906
			c0.006-0.007,0.01-0.016,0.015-0.024c1.266,5.801,1.93,9.71,5.28,12.846l1.323,6.725l-16.882,6.059
			c-5.367,1.901-8.955,6.977-8.955,12.672v0h71v0C85.534,81.811,81.946,76.734,76.579,74.833z"/>
	</g>
	<g>
		<path style="fill:#70BFFF;" d="M76.579,74.833l-16.648-5.46c-0.335,2.46-5.197,5.912-10.02,5.891
			c-4.741-0.021-9.444-3.472-9.774-5.891l-16.648,5.46c-5.367,1.901-8.955,6.977-8.955,12.672v0h71v0
			C85.534,81.811,81.946,76.734,76.579,74.833z"/>
	</g>
	<g>
		<path style="fill:#40396E;" d="M85.534,89.005h-71c-0.829,0-1.5-0.671-1.5-1.5c0-6.316,4-11.977,9.955-14.085l15.045-5.927v-3.37
			c-4.559-4.814-5.675-10.079-5.933-12.825c-1.349,0.057-3.151-0.277-4.646-1.989c-2.343-2.683-3.373-8.101-1.234-10.6
			c0.641-0.749,1.897-1.467,3.374-1.456c-0.355-2.057-0.56-3.766-0.56-5.8c0-12.417,8.832-21.43,21-21.43s21,9.013,21,21.43
			c0,2.03-0.205,3.739-0.56,5.797c1.474-0.047,2.746,0.707,3.39,1.458c2.139,2.5,1.108,7.917-1.234,10.6
			c-1.499,1.715-3.316,2.051-4.665,1.989c-0.26,2.75-1.378,8.016-5.932,12.826v3.37l15.095,5.945
			c5.905,2.09,9.905,7.75,9.905,14.067C87.034,88.333,86.362,89.005,85.534,89.005z M16.128,86.005h67.811
			c-0.562-4.427-3.58-8.241-7.861-9.757L59.984,69.91c-0.573-0.226-0.95-0.779-0.95-1.396v-5c0-0.397,0.158-0.779,0.438-1.06
			c5.69-5.698,5.593-12.145,5.563-12.861c-0.027-0.648,0.365-1.257,0.972-1.484c0.35-0.132,0.737-0.127,1.085,0.013
			c0.187,0.072,1.985,0.692,3.277-0.787c1.771-2.026,2.054-5.695,1.215-6.676c-0.008-0.009-0.859-0.935-2.144,0.041
			c-0.495,0.376-1.169,0.408-1.698,0.081c-0.528-0.327-0.8-0.946-0.684-1.556c0.622-3.264,0.974-5.234,0.974-7.771
			c0-10.679-7.57-18.43-18-18.43s-18,7.751-18,18.43c0,2.542,0.352,4.51,0.974,7.771c0.116,0.61-0.156,1.229-0.684,1.556
			c-0.527,0.328-1.203,0.296-1.698-0.081c-1.294-0.984-2.12-0.051-2.127-0.041c-0.839,0.981-0.556,4.65,1.215,6.676
			c1.291,1.478,3.072,0.859,3.272,0.783c0.331-0.125,0.711-0.136,1.045-0.019c0.623,0.219,1.029,0.834,1.001,1.494
			c-0.03,0.716-0.134,7.156,5.563,12.861c0.281,0.281,0.438,0.663,0.438,1.06v5c0,0.616-0.377,1.17-0.95,1.396l-16.045,6.319
			C19.713,77.762,16.691,81.578,16.128,86.005z"/>
	</g>
	<g style="opacity:0.35;">
		<path style="fill:#40396E;" d="M50.226,65.014c4.833,0,9.284-2.582,9.284-2.582s-2.223,6.582-9.284,6.582
			c-7.005,0-9.732-6.654-9.732-6.654S45.393,65.014,50.226,65.014z"/>
	</g>
	<g>
		<path style="fill:#40396E;" d="M40.113,23.005c5.528,0,14.313,0,19.841,0c2.777,0,4.856,2.207,5.174,4.966
			c1.108,9.611,1.993,12.034,1.993,12.034h5.832c-0.07-0.114-0.145-0.224-0.229-0.321c-0.6-0.701-2.238-1.52-4.112-0.096
			c0.631-3.311,0.921-5.472,0.921-8.134c0-12.112-8.716-19.93-19.5-19.93s-19.5,7.818-19.5,19.93c0,2.662,0.29,4.823,0.921,8.134
			c-1.874-1.424-3.495-0.605-4.095,0.096c-0.084,0.098-0.158,0.207-0.229,0.321h5.813c0,0,0.907-2.242,1.995-12.034
			C35.246,25.211,37.336,23.005,40.113,23.005z"/>
	</g>
	<g>
		<path style="fill:#40396E;" d="M29.57,37.258c0,0,2.162-2.723,4.272-3.25c0,0,25.818-1.581,27.885-14.733
			C63.952,5.117,46.414,7.785,41.452,9.112C37.104,10.275,23.528,15.837,29.57,37.258z"/>
	</g>
	<g>
		<path style="fill:#40396E;" d="M59.604,21.634c0,0-0.365,3.762,6.643,12.37l4.187,3.349c0,0,7.44-19.747-9.633-24.561
			L59.604,21.634z"/>
	</g>
</g>
</svg>